<?xml version="1.0" standalone="no"?>
<!DOCTYPE svg PUBLIC "-//W3C//DTD SVG 20010904//EN"
 "http://www.w3.org/TR/2001/REC-SVG-20010904/DTD/svg10.dtd">
<svg version="1.0" xmlns="http://www.w3.org/2000/svg"
 width="700.000000pt" height="700.000000pt" viewBox="0 0 700.000000 700.000000"
 preserveAspectRatio="xMidYMid meet">
<metadata>
Created by potrace 1.11, written by Peter Selinger 2001-2013
</metadata>
<g transform="translate(0.000000,700.000000) scale(0.100000,-0.100000)"
fill="#000000" stroke="none">
<path d="M3220 6985 c-384 -53 -776 -227 -1075 -477 -442 -371 -719 -887 -774
-1442 -14 -138 -14 -474 -1 -631 23 -267 89 -576 176 -826 25 -71 150 -385
279 -699 l234 -570 15 -238 c18 -264 34 -349 89 -458 91 -180 233 -308 419
-375 271 -99 559 -36 765 168 71 70 86 93 61 93 -7 0 -105 55 -216 122 -167
100 -215 135 -267 190 -164 174 -215 428 -129 645 73 185 233 328 424 378 81
22 479 21 564 -1 203 -52 382 -229 440 -435 57 -204 0 -429 -149 -587 -52 -55
-100 -90 -267 -190 -111 -67 -209 -122 -216 -122 -25 0 -10 -23 61 -93 279
-276 696 -286 1009 -25 60 50 130 143 175 232 55 109 71 194 89 458 l15 239
235 572 c256 624 304 752 357 962 73 287 96 462 104 790 9 389 -19 602 -112
875 -264 771 -953 1339 -1754 1445 -131 18 -422 18 -551 0z m-650 -2865 l0
-200 -200 0 -200 0 0 200 0 200 200 0 200 0 0 -200z m2260 0 l0 -200 -200 0
-200 0 0 200 0 200 200 0 200 0 0 -200z"/>
<path d="M940 5318 c-172 -204 -309 -460 -374 -699 -34 -126 -36 -144 -106
-764 -111 -987 -132 -1102 -285 -1576 -139 -428 -164 -552 -172 -849 -6 -225
5 -319 53 -479 104 -341 368 -652 694 -816 97 -49 260 -101 378 -120 126 -21
375 -16 492 10 341 76 648 283 834 563 60 90 144 249 135 256 -2 2 -44 15 -94
30 -357 110 -646 396 -758 751 -37 117 -46 177 -61 412 l-14 209 -226 552
c-242 589 -302 755 -359 977 -82 321 -107 514 -114 885 -6 301 2 441 33 628 9
52 14 96 11 98 -3 3 -33 -28 -67 -68z"/>
<path d="M5994 5355 c31 -187 38 -265 43 -517 6 -309 -4 -483 -43 -723 -62
-377 -129 -584 -429 -1314 l-227 -555 -14 -210 c-19 -295 -46 -411 -132 -581
-142 -281 -403 -499 -700 -585 -94 -27 -92 -19 -34 -135 177 -354 524 -622
922 -710 117 -26 366 -31 492 -10 571 95 1014 539 1114 1115 13 76 15 137 11
300 -7 292 -32 418 -167 833 -160 496 -178 596 -290 1592 -70 620 -72 638
-106 764 -47 172 -126 347 -231 506 -61 93 -169 231 -199 256 -16 13 -17 11
-10 -26z"/>
<path d="M3285 2461 c-47 -22 -99 -74 -114 -114 -30 -77 -5 -182 56 -238 27
-25 259 -169 273 -169 14 0 246 144 273 169 44 40 67 93 67 155 0 67 -9 93
-52 141 -58 67 -89 75 -288 75 -149 0 -181 -3 -215 -19z"/>
</g>
</svg>
